<?xml version="1.0" standalone="no"?>
<!DOCTYPE svg PUBLIC "-//W3C//DTD SVG 20010904//EN"
 "http://www.w3.org/TR/2001/REC-SVG-20010904/DTD/svg10.dtd">
<svg version="1.0" xmlns="http://www.w3.org/2000/svg"
 width="640.000000pt" height="442.000000pt" viewBox="0 0 640.000000 442.000000"
 preserveAspectRatio="xMidYMid meet">
<metadata>
Created by potrace 1.16, written by Peter Selinger 2001-2019
</metadata>
<g transform="translate(0.000000,442.000000) scale(0.100000,-0.100000)"
fill="#ffffff" stroke="none">
<path d="M2775 4384 c-185 -28 -293 -57 -435 -117 -219 -92 -390 -246 -493
-445 -83 -161 -129 -359 -129 -557 0 -147 13 -229 58 -365 46 -138 174 -370
213 -385 11 -4 10 -1 -2 17 -150 215 -217 520 -173 787 63 378 269 666 592
830 400 202 867 210 1249 19 139 -70 213 -124 335 -247 265 -267 420 -623 420
-966 0 -171 -34 -318 -112 -487 l-31 -69 41 -86 c34 -71 42 -82 47 -62 93 399
129 698 106 871 -57 429 -339 821 -750 1046 -171 93 -365 165 -531 197 -82 16
-343 28 -405 19z"/>
<path d="M2921 3788 c-2 -50 -32 -107 -66 -128 -19 -11 -73 -28 -121 -36 -123
-22 -183 -56 -232 -136 -47 -76 -46 -153 5 -229 14 -22 28 -61 32 -90 8 -64
32 -85 114 -99 110 -18 202 -88 267 -204 37 -66 45 -65 112 15 67 80 112 94
198 64 23 -8 57 -15 76 -15 35 0 74 -37 74 -69 0 -23 68 -94 111 -117 43 -23
124 -23 166 -1 90 47 80 181 -17 229 -44 23 -130 23 -230 2 -80 -17 -149 -10
-225 21 -46 20 -95 19 -125 -2 -28 -19 -31 -23 -63 -77 -30 -52 -42 -54 -62
-13 -9 19 -52 69 -95 111 -132 127 -158 176 -95 176 23 0 65 30 65 48 0 24
-44 161 -65 203 -14 26 -25 50 -25 52 0 3 14 7 32 11 17 3 60 29 96 56 36 28
68 50 72 50 17 0 39 -40 60 -110 30 -100 92 -256 136 -338 41 -78 39 -71 -26
103 -51 136 -96 293 -86 302 5 5 29 -43 164 -328 69 -147 152 -272 152 -229 0
5 -48 103 -107 217 -59 115 -124 242 -144 283 -35 72 -69 184 -69 228 0 19
-17 40 -24 31 -2 -2 1 -37 6 -78 5 -40 7 -76 4 -78 -10 -10 -38 63 -51 131 -7
39 -13 59 -14 44z m-244 -315 c3 -7 -12 -19 -31 -27 -20 -8 -36 -17 -36 -20 0
-3 22 -2 48 1 45 5 50 3 69 -23 26 -37 53 -108 53 -137 0 -35 -19 -47 -72 -47
-53 0 -56 -4 -30 -49 15 -28 15 -33 2 -41 -43 -28 -104 2 -116 57 -3 16 -19
58 -35 94 -32 72 -34 91 -18 138 16 45 63 72 118 69 25 -2 46 -8 48 -15z m929
-529 c97 -46 67 -164 -40 -164 -79 0 -180 91 -160 144 13 33 145 46 200 20z"/>
<path d="M3230 3632 c0 -5 21 -17 48 -27 145 -55 306 -153 399 -243 120 -116
214 -282 249 -437 23 -103 23 -292 1 -395 -35 -156 -154 -336 -250 -375 -25
-11 -68 -18 -104 -18 -53 0 -77 7 -148 41 -46 22 -112 59 -145 82 -34 23 -64
40 -66 37 -8 -8 70 -104 116 -142 80 -67 181 -101 267 -90 162 20 292 159 354
380 19 66 23 105 24 230 0 92 -5 171 -13 205 -78 320 -249 548 -511 679 -104
53 -221 91 -221 73z"/>
<path d="M2478 3166 c-28 -57 -22 -104 32 -271 28 -85 50 -164 50 -176 0 -12
-33 -55 -84 -108 -89 -93 -106 -126 -106 -211 0 -60 -30 -167 -63 -222 -32
-56 -97 -124 -160 -168 -36 -26 -70 -69 -145 -184 -126 -193 -138 -214 -128
-223 11 -11 49 37 161 203 73 109 111 155 156 190 109 86 187 216 215 358 24
123 44 157 130 221 40 31 78 64 84 75 20 37 9 90 -51 246 -47 122 -63 176 -68
233 l-6 74 -17 -37z"/>
<path d="M2640 2863 c0 -5 10 -26 23 -47 20 -36 28 -41 87 -56 36 -8 87 -29
114 -45 164 -101 201 -118 247 -108 29 6 29 5 18 -20 -21 -47 -44 -44 -137 21
-142 97 -174 109 -206 73 -10 -10 -55 -107 -100 -214 -103 -240 -155 -332
-254 -440 -24 -27 -42 -51 -39 -54 14 -13 48 15 117 98 143 171 216 299 260
456 31 111 56 131 115 94 76 -49 89 -66 87 -112 -3 -47 27 -142 64 -199 30
-47 90 -109 199 -206 121 -108 159 -136 230 -172 79 -39 96 -44 190 -51 l80
-6 -84 -33 c-147 -59 -268 -72 -401 -46 -49 10 -29 -12 28 -31 l47 -15 -59 5
c-72 7 -148 42 -201 94 -97 94 -134 227 -135 476 0 95 -4 155 -9 150 -43 -45
-64 -273 -37 -389 67 -285 283 -416 571 -347 44 11 112 33 150 49 39 16 104
39 145 51 41 13 124 38 184 57 61 19 131 34 157 34 41 0 51 -4 66 -26 14 -23
15 -32 4 -72 -25 -96 -199 -295 -301 -345 -130 -64 -405 -102 -559 -78 -40 6
-76 9 -78 7 -3 -3 27 -15 67 -27 64 -19 85 -21 193 -14 312 18 513 92 666 247
80 80 151 212 151 279 0 43 -26 94 -57 110 -38 20 -135 13 -233 -17 -152 -47
-208 -56 -325 -52 -120 4 -178 23 -293 96 -66 42 -191 159 -247 232 -47 61
-155 238 -155 253 0 5 10 6 23 2 97 -29 108 -25 155 57 16 29 55 75 86 101 60
51 100 100 110 132 5 18 -1 22 -46 33 -28 6 -54 10 -56 7 -3 -3 7 -14 22 -26
35 -28 31 -58 -12 -84 -18 -11 -62 -41 -99 -67 -36 -27 -74 -48 -85 -48 -25 0
-73 25 -130 69 -71 54 -64 65 22 31 51 -20 100 -26 100 -12 0 4 -51 25 -113
47 -92 32 -124 39 -181 39 -66 -1 -70 0 -98 32 -28 32 -48 43 -48 27z"/>
<path d="M5079 2352 c-85 -54 -191 -191 -283 -365 -75 -141 -100 -204 -138
-353 l-34 -129 -94 -47 c-67 -33 -95 -52 -95 -65 0 -25 30 -20 105 15 33 16
61 27 63 25 2 -2 -45 -198 -105 -436 -119 -471 -123 -504 -77 -553 20 -22 30
-25 66 -21 50 5 91 37 150 116 46 60 53 85 27 95 -22 8 -20 9 -33 -23 -17 -40
-75 -94 -97 -89 -11 2 -20 12 -22 24 -2 11 52 238 119 505 l122 484 36 29
c131 107 268 281 331 421 61 137 100 344 70 380 -19 23 -61 18 -111 -13z m-1
-179 c5 -101 -44 -244 -121 -358 -40 -59 -171 -199 -174 -188 -10 30 88 342
146 468 49 104 85 147 120 143 25 -3 26 -6 29 -65z"/>
<path d="M1042 2137 c-18 -18 -49 -39 -70 -46 -326 -113 -557 -280 -660 -478
-52 -101 -66 -167 -60 -284 3 -76 9 -104 30 -144 87 -166 248 -204 330 -76 29
47 54 119 44 129 -3 3 -23 -11 -43 -32 -42 -42 -68 -51 -124 -43 -121 16 -185
168 -145 340 53 226 269 437 549 536 131 46 135 44 84 -36 -66 -104 -124 -222
-141 -288 -16 -65 -48 -270 -66 -430 -19 -169 -60 -445 -82 -545 -23 -111 -66
-198 -120 -244 -90 -77 -236 -122 -317 -97 -47 14 -105 61 -127 102 -18 36
-18 102 1 140 9 16 33 40 55 54 44 28 47 36 24 59 -20 20 -52 28 -95 24 -29
-3 -38 -10 -61 -53 -71 -130 -5 -290 141 -340 164 -57 348 -7 492 135 79 77
129 153 170 256 53 133 60 184 69 529 10 379 25 489 98 694 18 52 37 85 64
112 22 21 37 43 33 49 -12 19 -41 10 -73 -23z"/>
<path d="M5177 1060 c-171 -29 -241 -157 -139 -256 21 -21 89 -61 157 -94 67
-32 127 -65 134 -73 17 -21 17 -73 0 -93 -26 -32 -91 -54 -159 -54 -87 0 -138
16 -177 55 -42 42 -43 72 -2 87 26 9 30 15 27 42 -3 27 -7 31 -36 34 -42 4
-69 -18 -82 -70 -21 -77 15 -140 110 -189 40 -21 59 -24 160 -24 111 0 118 1
184 34 112 55 153 145 105 230 -26 45 -42 57 -181 132 -134 72 -150 85 -146
118 5 40 60 71 127 71 91 0 128 -27 165 -122 24 -62 86 -43 86 26 0 65 -78
126 -184 145 -66 12 -80 12 -149 1z"/>
<path d="M1234 1035 c-43 -25 -144 -140 -144 -163 0 -32 31 -21 77 27 50 51
83 65 83 35 0 -13 -96 -414 -116 -486 -5 -16 2 -18 54 -18 l59 0 23 88 c13 48
32 107 42 131 49 116 190 281 272 320 92 43 129 33 128 -35 -1 -30 -86 -384
-118 -486 -5 -16 2 -18 59 -18 l65 0 21 87 c12 47 33 110 46 138 72 152 203
300 292 329 105 35 115 -3 57 -228 -60 -233 -62 -265 -16 -311 34 -34 84 -33
135 2 41 29 137 146 137 168 0 11 -30 31 -34 23 -10 -18 -64 -87 -80 -100 -25
-23 -53 -23 -61 1 -3 10 15 100 40 200 25 99 45 193 45 208 0 97 -134 134
-258 72 -68 -33 -150 -103 -195 -164 -29 -39 -29 -39 -23 -10 15 70 17 140 4
155 -31 37 -63 50 -124 50 -92 0 -179 -47 -278 -150 -42 -44 -76 -77 -76 -74
0 3 7 36 16 74 13 58 13 77 3 107 -6 21 -17 41 -23 45 -22 15 -72 7 -112 -17z"/>
<path d="M2659 1028 c-44 -32 -149 -137 -149 -149 0 -4 7 -12 15 -19 13 -11
21 -6 51 29 55 64 114 87 114 45 0 -8 -34 -150 -75 -317 -53 -216 -85 -322
-109 -372 -34 -67 -86 -132 -133 -163 -24 -15 -28 -29 -14 -50 7 -11 19 -8 61
13 111 56 192 163 246 325 16 47 30 86 31 88 0 2 25 -4 54 -12 101 -31 252
-15 351 35 59 30 136 106 164 161 77 152 45 305 -81 383 -46 28 -54 30 -155
30 -92 0 -114 -3 -159 -25 l-53 -24 -20 27 c-28 39 -81 37 -139 -5z m411 -34
c93 -37 125 -182 68 -306 -32 -69 -105 -145 -169 -176 -70 -34 -155 -39 -213
-13 -37 16 -46 25 -42 38 3 10 26 103 52 208 29 116 53 195 63 203 37 30 118
62 158 62 24 0 61 -7 83 -16z"/>
<path d="M5981 1049 c-241 -41 -414 -295 -328 -482 61 -135 248 -183 412 -106
44 21 175 132 175 149 0 4 -12 12 -27 19 -24 11 -29 9 -72 -33 -65 -63 -114
-86 -182 -86 -104 0 -167 47 -176 134 l-5 43 123 5 c142 7 228 30 296 81 70
54 93 135 56 198 -36 61 -161 97 -272 78z m114 -75 c37 -17 51 -53 40 -103
-15 -68 -118 -120 -257 -129 -86 -5 -88 -4 -88 18 0 70 101 190 179 214 61 19
86 19 126 0z"/>
<path d="M3600 1007 c-72 -57 -154 -153 -146 -172 9 -23 30 -18 59 15 28 31
54 39 62 17 3 -6 -12 -71 -34 -142 -52 -173 -54 -189 -41 -230 49 -148 324
-64 473 145 l18 25 -6 -30 c-17 -98 -17 -122 0 -156 50 -96 128 -74 221 61 40
59 46 73 34 80 -22 14 -28 12 -41 -12 -16 -32 -71 -88 -85 -88 -7 0 -16 5 -19
10 -5 8 82 383 111 483 5 15 -2 17 -58 17 l-63 0 -18 -78 c-42 -187 -185 -396
-310 -452 -57 -27 -123 -26 -137 0 -11 21 -12 16 74 320 19 69 36 139 37 155
6 89 -43 101 -131 32z"/>
</g>
</svg>
