<?xml version="1.0" standalone="no"?>
<!DOCTYPE svg PUBLIC "-//W3C//DTD SVG 20010904//EN"
 "http://www.w3.org/TR/2001/REC-SVG-20010904/DTD/svg10.dtd">
<svg version="1.0" xmlns="http://www.w3.org/2000/svg"
 width="287.000000pt" height="309.000000pt" viewBox="0 0 287.000000 309.000000"
 preserveAspectRatio="xMidYMid meet">
<metadata>
Created by potrace 1.16, written by Peter Selinger 2001-2019
</metadata>
<g transform="translate(0.000000,309.000000) scale(0.100000,-0.100000)"
fill="#ffffff" stroke="none">
<path d="M1105 3044 c-185 -28 -293 -57 -435 -117 -219 -92 -390 -246 -493
-445 -83 -161 -129 -359 -129 -557 0 -147 13 -229 58 -365 46 -138 174 -370
213 -385 11 -4 10 -1 -2 17 -150 215 -217 520 -173 787 63 378 269 666 592
830 400 202 867 210 1249 19 139 -70 213 -124 335 -247 265 -267 420 -623 420
-965 0 -168 -33 -316 -108 -479 l-35 -78 41 -86 c34 -71 42 -82 47 -62 93 399
129 698 106 871 -57 429 -339 821 -750 1046 -171 93 -365 165 -531 197 -82 16
-343 28 -405 19z"/>
<path d="M1251 2448 c-2 -50 -32 -107 -66 -128 -19 -11 -73 -28 -121 -36 -123
-22 -183 -56 -232 -136 -47 -76 -46 -153 4 -228 14 -21 27 -59 30 -86 3 -27
11 -55 17 -63 17 -20 71 -41 105 -41 44 0 145 -56 190 -104 23 -25 55 -69 72
-100 37 -66 45 -65 112 15 67 80 112 94 198 64 23 -8 57 -15 76 -15 35 0 74
-37 74 -69 0 -22 71 -96 113 -118 41 -22 123 -22 164 0 90 47 80 181 -17 229
-44 23 -130 23 -230 2 -80 -17 -149 -10 -225 21 -46 20 -95 19 -125 -2 -28
-19 -31 -23 -63 -77 -30 -52 -42 -54 -62 -13 -9 19 -52 69 -95 111 -132 127
-158 176 -95 176 23 0 65 30 65 48 0 24 -44 161 -65 203 -28 54 -49 71 -114
90 -38 11 -41 14 -26 25 10 7 37 16 61 20 23 3 80 19 126 34 46 15 85 26 87
24 9 -9 -47 -57 -101 -87 -58 -32 -72 -47 -43 -47 23 0 72 27 128 71 27 22 52
39 56 39 18 0 40 -40 61 -110 30 -100 92 -256 136 -338 41 -78 39 -71 -26 103
-51 136 -96 293 -86 302 5 5 29 -43 164 -328 69 -147 152 -272 152 -229 0 5
-48 103 -107 217 -59 115 -124 242 -144 283 -35 72 -69 184 -69 228 0 19 -17
40 -24 31 -2 -2 1 -37 6 -78 5 -40 7 -76 4 -78 -10 -10 -38 63 -51 131 -7 39
-13 59 -14 44z m-244 -315 c3 -7 -12 -19 -31 -27 -20 -8 -36 -17 -36 -20 0 -3
22 -2 48 1 45 5 50 3 69 -23 26 -37 53 -108 53 -137 0 -35 -19 -47 -72 -47
-53 0 -56 -4 -30 -49 15 -28 15 -33 2 -41 -43 -28 -104 2 -116 57 -3 16 -19
58 -35 94 -32 72 -34 91 -18 138 16 45 63 72 118 69 25 -2 46 -8 48 -15z m929
-529 c97 -46 67 -164 -40 -164 -79 0 -180 91 -160 144 13 33 145 46 200 20z"/>
<path d="M1560 2292 c0 -5 21 -17 48 -27 145 -55 306 -153 399 -243 120 -116
214 -282 249 -437 23 -103 23 -292 1 -395 -35 -156 -154 -336 -250 -375 -25
-11 -68 -18 -104 -18 -53 0 -77 7 -148 41 -46 22 -112 59 -145 82 -34 23 -64
40 -66 37 -8 -8 70 -104 116 -142 80 -67 181 -101 267 -90 162 20 292 159 354
380 19 66 23 105 24 230 0 92 -5 171 -13 205 -78 320 -249 548 -511 679 -104
53 -221 91 -221 73z"/>
<path d="M808 1826 c-28 -57 -22 -104 32 -271 28 -85 50 -164 50 -176 0 -12
-33 -55 -84 -108 -89 -93 -106 -126 -106 -211 0 -60 -30 -167 -63 -222 -32
-56 -97 -124 -160 -168 -36 -26 -70 -69 -145 -184 -126 -193 -138 -214 -128
-223 11 -11 49 37 161 203 73 109 111 155 156 190 109 86 187 216 215 358 24
123 44 157 130 221 40 31 78 64 84 75 20 37 9 90 -51 246 -47 122 -63 176 -68
233 l-6 74 -17 -37z"/>
<path d="M970 1525 c0 -3 9 -23 20 -45 20 -39 23 -41 127 -69 23 -6 65 -28 95
-47 99 -67 170 -99 215 -97 41 1 42 1 31 -23 -20 -44 -44 -40 -136 24 -142 97
-174 109 -206 73 -10 -10 -55 -107 -100 -214 -103 -240 -155 -332 -254 -440
-24 -27 -42 -51 -39 -54 14 -13 48 15 117 98 143 171 216 299 260 456 31 111
56 131 115 94 76 -49 89 -65 87 -113 -3 -49 27 -141 64 -198 30 -47 91 -110
199 -206 121 -108 159 -136 230 -172 79 -39 96 -44 190 -51 l80 -6 -84 -33
c-147 -59 -268 -72 -401 -46 -49 10 -29 -12 28 -31 l47 -15 -59 5 c-72 7 -148
42 -201 94 -97 94 -134 227 -135 476 0 95 -4 155 -9 150 -43 -45 -64 -273 -37
-389 67 -285 283 -416 571 -347 44 11 112 33 150 49 39 16 104 39 145 51 41
13 124 38 184 57 61 19 131 34 157 34 41 0 51 -4 66 -26 14 -23 15 -32 4 -72
-25 -96 -199 -295 -301 -345 -130 -64 -405 -102 -559 -78 -40 6 -76 9 -78 7
-3 -3 27 -15 67 -27 64 -19 85 -21 193 -14 312 18 513 92 666 247 80 80 151
212 151 279 0 43 -26 94 -57 110 -38 20 -135 13 -233 -17 -152 -47 -208 -56
-325 -52 -120 4 -178 23 -293 96 -66 42 -191 159 -247 232 -47 61 -155 238
-155 253 0 5 10 6 23 2 97 -29 108 -25 155 57 16 29 55 75 86 101 60 51 100
100 110 132 5 18 -1 22 -46 33 -28 6 -54 10 -56 7 -3 -3 7 -14 22 -26 35 -28
31 -58 -12 -84 -18 -11 -62 -41 -99 -67 -36 -27 -74 -48 -85 -48 -25 0 -73 25
-130 69 -71 54 -64 65 22 31 51 -20 100 -26 100 -12 0 4 -51 25 -113 47 -92
32 -124 39 -181 39 -66 -1 -70 0 -98 32 -27 31 -48 43 -48 29z"/>
</g>
</svg>
