<?xml version="1.0" standalone="no"?><svg xmlns="http://www.w3.org/2000/svg" viewBox="0 0 1440 320"><path fill="#ffffff" fill-opacity="1" d="M0,160L9.6,154.7C19.2,149,38,139,58,128C76.8,117,96,107,115,122.7C134.4,139,154,181,173,186.7C192,192,211,160,230,165.3C249.6,171,269,213,288,245.3C307.2,277,326,299,346,272C364.8,245,384,171,403,165.3C422.4,160,442,224,461,213.3C480,203,499,117,518,117.3C537.6,117,557,203,576,218.7C595.2,235,614,181,634,181.3C652.8,181,672,235,691,250.7C710.4,267,730,245,749,202.7C768,160,787,96,806,64C825.6,32,845,32,864,48C883.2,64,902,96,922,144C940.8,192,960,256,979,277.3C998.4,299,1018,277,1037,250.7C1056,224,1075,192,1094,197.3C1113.6,203,1133,245,1152,261.3C1171.2,277,1190,267,1210,224C1228.8,181,1248,107,1267,96C1286.4,85,1306,139,1325,138.7C1344,139,1363,85,1382,69.3C1401.6,53,1421,75,1430,85.3L1440,96L1440,320L1430.4,320C1420.8,320,1402,320,1382,320C1363.2,320,1344,320,1325,320C1305.6,320,1286,320,1267,320C1248,320,1229,320,1210,320C1190.4,320,1171,320,1152,320C1132.8,320,1114,320,1094,320C1075.2,320,1056,320,1037,320C1017.6,320,998,320,979,320C960,320,941,320,922,320C902.4,320,883,320,864,320C844.8,320,826,320,806,320C787.2,320,768,320,749,320C729.6,320,710,320,691,320C672,320,653,320,634,320C614.4,320,595,320,576,320C556.8,320,538,320,518,320C499.2,320,480,320,461,320C441.6,320,422,320,403,320C384,320,365,320,346,320C326.4,320,307,320,288,320C268.8,320,250,320,230,320C211.2,320,192,320,173,320C153.6,320,134,320,115,320C96,320,77,320,58,320C38.4,320,19,320,10,320L0,320Z"></path></svg>